<svg width="140" height="60" viewBox="0 0 140 60" xmlns="http://www.w3.org/2000/svg">
  <!-- 포인트 스파크 (m과 o 사이 중앙) -->
  <!-- 대략 m의 오른쪽 끝(≈60)과 o의 중심(≈80) 사이 중간 지점 -->
  <path
    d="M63 20a5 5 0 0 1 8.66 0L70.33 20.5z"
    fill="#FF6B4A"
  />

  <!-- mo 워드마크 -->
  <g fill="#111827">
    <!-- m -->
    <path
      d="M32 43V23h4.2v3.5c1.3-2.5 3.4-4 6.3-4 2.8 0 4.9 1.4 6.1 3.7 1.3-2.3 3.6-3.7 6.4-3.7 4.3 0 7 3 7 8.3V43h-4.1V32.7
         c0-2.9-1.5-4.6-3.9-4.6-2.5 0-4.2 1.8-4.2 4.8V43h-4.1V32.7c0-2.9-1.5-4.6-3.9-4.6-2.5 0-4.2 1.8-4.2 4.8V43H30z"
    />
    <!-- o (m 쪽으로 더 가깝게 이동: 74 → 70) -->
    <path
      d="M68 33c0-6 4.5-10.5 10.7-10.5S91.4 27 91.4 33 86.9 43.6 80.7 43.6 70 39.1 70 33zm17 0c0-3.6-2.6-6.1-6.3-6.1S74.4 29.4 74.4 33
         s2.6 6.2 6.3 6.2S87 36.7 87 33z"
    />
  </g>
</svg>
